<?xml version="1.0" encoding="UTF-8"?>
<svg version="1.1" xmlns="http://www.w3.org/2000/svg" width="135" height="160">
<path d="M0 0 C44.55 0 89.1 0 135 0 C135 52.8 135 105.6 135 160 C90.45 160 45.9 160 0 160 C0 107.2 0 54.4 0 0 Z " fill="#212121" transform="translate(0,0)"/>
<path d="M0 0 C1.17949219 0.56074219 1.17949219 0.56074219 2.3828125 1.1328125 C11.54124 5.82068556 17.84097264 12.1559531 23 21 C23.5878125 21.99 23.5878125 21.99 24.1875 23 C30.02334704 33.64183872 30.98858138 47.93790476 27.87890625 59.59375 C23.03244817 72.86227524 15.77646812 84.24083622 3 91 C-3.15484173 93.74330089 -9.23264217 95.71755602 -16 96 C-17.11246094 96.06316406 -18.22492188 96.12632812 -19.37109375 96.19140625 C-34.94986299 96.68571725 -45.77210982 92.44669313 -57.21484375 81.97265625 C-68.90329251 69.92525321 -71.56394981 56.26866861 -71.33984375 40.06640625 C-70.8382225 26.49765558 -64.3447659 16.84323047 -54.625 7.75 C-39.94265104 -4.82771191 -17.62425451 -8.84101948 0 0 Z " fill="#442327" transform="translate(91,36)"/>
<path d="M0 0 C18.18323864 0 18.18323864 0 24 5.6875 C24.99 6.8321875 24.99 6.8321875 26 8 C29.45483712 6.47987167 32.31495464 4.37385365 35.31640625 2.12109375 C41.42705193 -1.94794409 47.03261048 0 55 0 C55 13.86 55 27.72 55 42 C52.69 42 50.38 42 48 42 C48 30.12 48 18.24 48 6 C38.53825591 7.36049197 38.53825591 7.36049197 33 13 C30.70825923 16.43761116 30.70475953 17.92071615 30.5859375 21.98046875 C30.54726562 23.14384766 30.50859375 24.30722656 30.46875 25.50585938 C30.42234375 27.32827148 30.42234375 27.32827148 30.375 29.1875 C30.33632812 30.41404297 30.29765625 31.64058594 30.2578125 32.90429688 C30.16343897 35.93604656 30.07785451 38.96778841 30 42 C28.02 42 26.04 42 24 42 C23.98541748 41.27409668 23.97083496 40.54819336 23.95581055 39.80029297 C23.88105141 36.49134268 23.7844821 33.18337048 23.6875 29.875 C23.66494141 28.73289062 23.64238281 27.59078125 23.61914062 26.4140625 C23.44872005 18.25228189 23.44872005 18.25228189 20 11 C15.45741203 7.14362621 15.45741203 7.14362621 6 6 C6 17.88 6 29.76 6 42 C4.02 42 2.04 42 0 42 C0 28.14 0 14.28 0 0 Z " fill="#C62D3F" transform="translate(43,61)"/>
<path d="M0 0 C0.66 0.33 1.32 0.66 2 1 C-0.64 3.64 -3.28 6.28 -6 9 C-6 6 -6 6 -3.5625 3.375 C-2.716875 2.59125 -1.87125 1.8075 -1 1 C-0.67 0.67 -0.34 0.34 0 0 Z " fill="#60252C" transform="translate(81,68)"/>
</svg>
